Coordinates
version=1
nRows=17
nColumns=40
inDegrees=yes

Units are S.I. units (second, meters, Newtons, ...)
Angles are in degrees.

endheader
time	pelvis_tilt	pelvis_list	pelvis_rotation	pelvis_tx	pelvis_ty	pelvis_tz	hip_flexion_r	hip_adduction_r	hip_rotation_r	knee_angle_r	knee_angle_r_beta	ankle_angle_r	subtalar_angle_r	mtp_angle_r	hip_flexion_l	hip_adduction_l	hip_rotation_l	knee_angle_l	knee_angle_l_beta	ankle_angle_l	subtalar_angle_l	mtp_angle_l	lumbar_extension	lumbar_bending	lumbar_rotation	arm_flex_r	arm_add_r	arm_rot_r	elbow_flex_r	pro_sup_r	wrist_flex_r	wrist_dev_r	arm_flex_l	arm_add_l	arm_rot_l	elbow_flex_l	pro_sup_l	wrist_flex_l	wrist_dev_l
     41.81500000	     -3.17375157	     -5.22976389	      5.48552490	      1.06822580	      0.92651756	      0.48181207	     -1.07932721	      4.39468006	    -17.69890327	      7.78091457	      7.78091457	     14.33205218	      7.01426852	     -5.76585785	     29.12832146	     -9.84709217	     -2.47057604	     23.37408818	     23.37408818	      5.85374441	    -10.28229477	      9.06178725	     -9.64020399	      7.74675061	      3.52490348	     39.96205406	    -20.01369357	     -4.95186234	     93.57990128	     44.59069735	      0.00000000	      0.00000000	    -13.59696884	     -6.76216145	     -2.24796965	     26.95873486	     45.08278275	      0.00000000	      0.00000000
     41.82835714	     -3.20050372	     -5.32991498	      5.28757336	      1.06936014	      0.92552929	      0.48017326	     -1.54255494	      4.39544420	    -17.65111059	      7.74917551	      7.74917551	     14.81034834	      7.41832836	     -5.34719964	     28.61940042	     -9.79916621	     -2.45767622	     23.96486034	     23.96486034	      5.35839478	    -11.20803536	      8.22753421	     -9.42788759	      7.69793698	      3.58502789	     39.81960573	    -19.47041969	     -5.25856955	     92.40771287	     44.65548004	      0.00000000	      0.00000000	    -13.70567117	     -6.90376913	     -1.72067049	     27.01901021	     45.01956542	      0.00000000	      0.00000000
     41.84171429	     -3.23415702	     -5.39761970	      5.03814800	      1.07056409	      0.92458820	      0.47855272	     -1.93694873	      4.34397850	    -17.39574284	      7.82760038	      7.82760038	     15.16673849	      7.53250573	     -5.40797054	     28.12310576	     -9.79677675	     -2.58744001	     24.53657405	     24.53657405	      5.41537388	    -11.63248487	      8.08847471	     -9.27364492	      7.63320923	      3.71650746	     39.30978286	    -19.20335518	     -5.14792725	     92.15428946	     44.65956653	      0.00000000	      0.00000000	    -13.70643206	     -7.03347473	     -1.69682783	     27.02558831	     45.01846742	      0.00000000	      0.00000000
     41.85507143	     -3.31017451	     -5.49899743	      4.83976855	      1.07167286	      0.92365869	      0.47671642	     -2.19445570	      4.28834490	    -17.20810493	      8.07280941	      8.07280941	     15.63083213	      7.56832712	     -4.92382433	     27.75627648	     -9.74034307	     -2.38505418	     25.07493386	     25.07493386	      5.34824583	    -12.44908674	      7.55027168	     -9.01082576	      7.58924245	      3.89579706	     38.85369615	    -18.90660366	     -5.55238755	     90.60115647	     44.73426487	      0.00000000	      0.00000000	    -13.51437977	     -7.22733106	     -1.39587875	     27.13991652	     44.99661298	      0.00000000	      0.00000000
     41.86842857	     -3.36671542	     -5.52293287	      4.63175304	      1.07272427	      0.92294993	      0.47476527	     -2.37562808	      4.10904012	    -16.98045048	      8.50396531	      8.50396531	     16.08858700	      7.49400255	     -4.53696362	     27.37931775	     -9.65748117	     -2.32278439	     25.52915115	     25.52915115	      5.52105976	    -12.94854885	      7.08923664	     -8.84226440	      7.47385609	      3.92749200	     38.24397709	    -18.49577574	     -5.71609728	     89.38191411	     44.78815883	      0.00000000	      0.00000000	    -13.25115278	     -7.42745798	     -1.17687955	     27.21222799	     44.98989477	      0.00000000	      0.00000000
     41.88178571	     -3.41898729	     -5.50352662	      4.45328330	      1.07369340	      0.92244463	      0.47264515	     -2.49562139	      3.85511118	    -16.75034194	      9.04520184	      9.04520184	     16.45389887	      7.32627380	     -4.27063632	     27.04795990	     -9.52620582	     -2.23859778	     25.94173204	     25.94173204	      5.84965872	    -13.34263087	      6.73880985	     -8.70880465	      7.30638309	      3.97898772	     37.46891891	    -18.20669298	     -5.83154622	     88.14007421	     44.83711758	      0.00000000	      0.00000000	    -12.80912589	     -7.63650671	     -1.06102905	     27.31102853	     44.99795645	      0.00000000	      0.00000000
     41.89514286	     -3.37373597	     -5.47567900	      4.34156967	      1.07465431	      0.92231122	      0.47035069	     -2.80333179	      3.61908350	    -16.62009216	      9.39555185	      9.39555185	     16.57908021	      7.22847536	     -4.24910103	     26.66823625	     -9.39240068	     -2.15375707	     26.33439786	     26.33439786	      6.31758365	    -13.61049704	      6.48308178	     -8.74531792	      7.18811848	      3.87293819	     36.46760451	    -17.81218155	     -5.67547709	     87.54197907	     44.84852033	      0.00000000	      0.00000000	    -12.26763482	     -7.82190472	     -1.05360486	     27.46936684	     45.00986365	      0.00000000	      0.00000000
     41.90850000	     -3.49255782	     -5.33749610	      4.17252342	      1.07529422	      0.92217371	      0.46784364	     -2.53377502	      3.11273190	    -16.35755661	     10.51727288	     10.51727288	     16.94629311	      6.74010413	     -4.06514782	     26.43614147	     -9.13486794	     -2.17694568	     26.60697953	     26.60697953	      6.74305776	    -13.88097795	      6.23346145	     -8.56127265	      6.88825013	      4.09236577	     35.51784150	    -17.77516732	     -5.99012508	     85.40271349	     44.92970547	      0.00000000	      0.00000000	    -11.44837244	     -8.07161508	     -0.99277838	     27.57095699	     45.03007579	      0.00000000	      0.00000000
     41.92185714	     -3.42370710	     -5.33304141	      4.15021524	      1.07604186	      0.92250723	      0.46512993	     -2.80130763	      2.87047244	    -16.28686081	     10.94080413	     10.94080413	     16.91316839	      6.61155551	     -4.02247847	     26.06839182	     -8.98897442	     -2.06214527	     26.87907245	     26.87907245	      7.24519248	    -14.06065498	      6.00442691	     -8.70262887	      6.83792289	      3.81562261	     34.39853671	    -17.29991117	     -5.79527967	     84.73245417	     44.94099755	      0.00000000	      0.00000000	    -10.62698937	     -8.21447426	     -0.97843986	     27.80532059	     45.04457348	      0.00000000	      0.00000000
     41.93521429	     -3.52195758	     -5.11419899	      4.02241844	      1.07647215	      0.92283756	      0.46221641	     -2.34313732	      2.19547983	    -16.05705956	     12.46493106	     12.46493106	     17.45248526	      6.03555754	     -3.13737712	     25.79443114	     -8.62312511	     -2.16254131	     27.02406008	     27.02406008	      7.68128441	    -14.25968386	      6.06347828	     -8.48002689	      6.53974024	      3.58213134	     33.99708479	    -16.52780846	     -6.23422381	     80.45924298	     45.10518480	      0.00000000	      0.00000000	     -9.58189095	     -8.42296423	     -0.70929013	     27.19710488	     45.07261712	      0.00000000	      0.00000000
     41.94857143	     -3.49682653	     -4.94476261	      3.94085622	      1.07702838	      0.92347811	      0.45914161	     -2.21674317	      1.62302545	    -15.96468821	     13.56338837	     13.56338837	     17.47918552	      5.72494572	     -3.15764536	     25.32632719	     -8.31630310	     -2.31920921	     27.05374942	     27.05374942	      8.13380546	    -14.26546877	      5.95042691	     -8.53250862	      6.35597239	      3.70231043	     32.67598634	    -16.54034450	     -6.03113322	     78.85869562	     45.14802087	      0.00000000	      0.00000000	     -8.48855223	     -8.63716679	     -0.73035506	     27.56199748	     45.10720272	      0.00000000	      0.00000000
     41.96192857	     -3.47697502	     -4.77516184	      3.86091034	      1.07749273	      0.92422919	      0.45595346	     -1.98944769	      1.01474299	    -15.82903409	     14.82440122	     14.82440122	     17.51544030	      5.37897594	     -3.28250872	     24.83813406	     -7.99749795	     -2.52074788	     27.02833269	     27.02833269	      8.51030827	    -14.28572231	      5.89768020	     -8.58065830	      6.16780486	      3.75106087	     31.30467458	    -16.51779501	     -5.86339903	     76.86854749	     45.20400422	      0.00000000	      0.00000000	     -7.28908312	     -8.84094934	     -0.71859184	     27.84513132	     45.13723623	      0.00000000	      0.00000000
     41.97528571	     -3.51121427	     -4.65448421	      3.80588754	      1.07784323	      0.92498534	      0.45261561	     -1.62858859	      0.42537279	    -15.74797073	     16.19856557	     16.19856557	     17.47012926	      5.04073382	     -3.34532949	     24.39375598	     -7.67507598	     -2.59889084	     26.95640526	     26.95640526	      8.93300404	    -14.34485324	      6.09961611	     -8.49397293	      6.07960390	      3.30435265	     30.89696065	    -15.85267219	     -5.44786134	     72.77717707	     45.32754406	      0.00000000	      0.00000000	     -6.03390283	     -8.93609237	     -0.50968979	     27.47859876	     45.17799488	      0.00000000	      0.00000000
     41.98864286	     -3.35219883	     -4.75190609	      3.83619445	      1.07839702	      0.92607049	      0.44925711	     -1.67504303	      0.15819156	    -15.71544094	     17.14931567	     17.14931567	     17.19790222	      4.84593297	     -3.47515642	     23.75857556	     -7.58651968	     -2.59599726	     26.87343870	     26.87343870	      9.27491796	    -14.31952071	      6.01152492	     -8.73047290	      6.31787712	      2.99365605	     29.29575883	    -15.44677383	     -5.13537462	     71.84659747	     45.34039247	      0.00000000	      0.00000000	     -4.89198977	     -9.08126184	     -0.52508389	     27.92838760	     45.20219083	      0.00000000	      0.00000000
     42.00200000	     -3.43216996	     -4.34601278	      3.60452019	      1.07853193	      0.92678806	      0.44586359	     -0.72134657	     -0.93925797	    -15.34211630	     19.54861159	     19.54861159	     17.15769814	      4.24432366	     -4.23663707	     23.12419020	     -7.03000380	     -3.12649962	     26.49382301	     26.49382301	      9.49470700	    -14.19970517	      6.01645813	     -8.68510993	      5.85844947	      3.64386775	     27.72677277	    -16.11051374	     -4.90329877	     69.16056408	     45.41595256	      0.00000000	      0.00000000	     -3.30899077	     -9.26347733	     -0.55537902	     28.56284877	     45.24130236	      0.00000000	      0.00000000
     42.01535714	     -3.53468364	     -4.25013097	      3.47618447	      1.07862082	      0.92738707	      0.44242321	      0.14698327	     -1.64383105	    -15.11073969	     21.63250341	     21.63250341	     16.76198213	      3.69786118	     -5.14054997	     22.65520491	     -6.71043458	     -3.24842077	     26.26264396	     26.26264396	      9.79236417	    -14.30900046	      5.99050771	     -8.60678458	      5.85624050	      3.86164983	     26.43228812	    -16.19037790	     -4.51352602	     66.27835149	     45.49294791	      0.00000000	      0.00000000	     -1.78900324	     -9.33958900	     -0.47749728	     28.96688654	     45.26527999	      0.00000000	      0.00000000
     42.02871429	     -3.54601958	     -4.24032594	      3.39074285	      1.07871356	      0.92810882	      0.43900054	      0.89083045	     -2.20462715	    -14.77247118	     23.53501436	     23.53501436	     15.50173682	      2.74182136	     -8.04909453	     22.11235107	     -6.45282664	     -3.22732709	     26.04261076	     26.04261076	     10.01964490	    -14.57631192	      6.05555622	     -8.49036747	      5.96715541	      3.23169715	     26.49534075	    -15.51943153	     -3.48311236	     60.47103859	     45.64567690	      0.00000000	      0.00000000	     -0.48506697	     -9.53841686	     -0.07387344	     28.82256287	     45.26798604	      0.00000000	      0.00000000
